<svg width="25" height="24" viewBox="0 0 25 24" fill="none" xmlns="http://www.w3.org/2000/svg">
<path d="M7.55646 0.222656C7.77434 0.222656 7.98331 0.309211 8.13738 0.463281C8.29144 0.61735 8.378 0.826312 8.378 1.0442V2.58048H17.2002V1.05476C17.2002 0.836875 17.2868 0.627913 17.4408 0.473843C17.5949 0.319774 17.8039 0.233219 18.0217 0.233219C18.2396 0.233219 18.4486 0.319774 18.6027 0.473843C18.7567 0.627913 18.8433 0.836875 18.8433 1.05476V2.58048H22.0238C22.6462 2.58048 23.243 2.82762 23.6832 3.26757C24.1233 3.70751 24.3708 4.30425 24.3711 4.92658V21.3492C24.3708 21.9715 24.1233 22.5683 23.6832 23.0082C23.243 23.4482 22.6462 23.6953 22.0238 23.6953H3.2457C2.62337 23.6953 2.02651 23.4482 1.58635 23.0082C1.14619 22.5683 0.898749 21.9715 0.898438 21.3492L0.898438 4.92658C0.898749 4.30425 1.14619 3.70751 1.58635 3.26757C2.02651 2.82762 2.62337 2.58048 3.2457 2.58048H6.73491V1.04303C6.73522 0.825342 6.82192 0.616681 6.97595 0.462866C7.12999 0.30905 7.33877 0.222656 7.55646 0.222656ZM2.54152 9.30892V21.3492C2.54152 21.4417 2.55974 21.5333 2.59513 21.6187C2.63051 21.7041 2.68238 21.7818 2.74777 21.8472C2.81316 21.9125 2.89079 21.9644 2.97623 21.9998C3.06166 22.0352 3.15323 22.0534 3.2457 22.0534H22.0238C22.1163 22.0534 22.2079 22.0352 22.2933 21.9998C22.3787 21.9644 22.4564 21.9125 22.5218 21.8472C22.5871 21.7818 22.639 21.7041 22.6744 21.6187C22.7098 21.5333 22.728 21.4417 22.728 21.3492V9.32535L2.54152 9.30892ZM8.72305 17.38V19.3353H6.7666V17.38H8.72305ZM13.6124 17.38V19.3353H11.6571V17.38H13.6124ZM18.5029 17.38V19.3353H16.5465V17.38H18.5029ZM8.72305 12.7125V14.6677H6.7666V12.7125H8.72305ZM13.6124 12.7125V14.6677H11.6571V12.7125H13.6124ZM18.5029 12.7125V14.6677H16.5465V12.7125H18.5029ZM6.73491 4.2224H3.2457C3.15323 4.2224 3.06166 4.24061 2.97623 4.276C2.89079 4.31139 2.81316 4.36326 2.74777 4.42865C2.68238 4.49404 2.63051 4.57166 2.59513 4.6571C2.55974 4.74253 2.54152 4.8341 2.54152 4.92658V7.66701L22.728 7.68344V4.92658C22.728 4.8341 22.7098 4.74253 22.6744 4.6571C22.639 4.57166 22.5871 4.49404 22.5218 4.42865C22.4564 4.36326 22.3787 4.31139 22.2933 4.276C22.2079 4.24061 22.1163 4.2224 22.0238 4.2224H18.8433V5.3127C18.8433 5.53059 18.7567 5.73955 18.6027 5.89362C18.4486 6.04769 18.2396 6.13425 18.0217 6.13425C17.8039 6.13425 17.5949 6.04769 17.4408 5.89362C17.2868 5.73955 17.2002 5.53059 17.2002 5.3127V4.2224H8.378V5.30214C8.378 5.52003 8.29144 5.72899 8.13738 5.88306C7.98331 6.03713 7.77434 6.12368 7.55646 6.12368C7.33857 6.12368 7.12961 6.03713 6.97554 5.88306C6.82147 5.72899 6.73491 5.52003 6.73491 5.30214V4.2224Z" fill="white"/>
</svg>
