<svg width="41" height="41" viewBox="0 0 41 41" fill="none" xmlns="http://www.w3.org/2000/svg">
<path fill-rule="evenodd" clip-rule="evenodd" d="M0.644531 20.5234C0.644531 9.47774 9.59884 0.523438 20.6445 0.523438C31.6902 0.523438 40.6445 9.47774 40.6445 20.5234C40.6445 31.5691 31.6902 40.5234 20.6445 40.5234C9.59884 40.5234 0.644531 31.5691 0.644531 20.5234ZM20.6445 10.5234C26.1445 10.5234 30.6445 15.0234 30.6445 20.5234C30.6445 25.5234 27.0195 29.7734 22.0195 30.5234V23.3984H24.3945L24.8945 20.5234H22.1445V18.6484C22.1445 17.8984 22.5195 17.1484 23.7695 17.1484H25.0195V14.6484C25.0195 14.6484 23.8945 14.3984 22.7695 14.3984C20.5195 14.3984 19.0195 15.7734 19.0195 18.2734V20.5234H16.5195V23.3984H19.0195V30.3984C14.2695 29.6484 10.6445 25.5234 10.6445 20.5234C10.6445 15.0234 15.1445 10.5234 20.6445 10.5234Z" fill="#F9C275"/>
</svg>
