<svg width="42" height="41" viewBox="0 0 42 41" fill="none" xmlns="http://www.w3.org/2000/svg">
<path d="M21.1445 24.0234C19.2227 24.0234 17.557 22.5234 17.557 20.5234C17.557 18.6484 19.0945 17.0234 21.1445 17.0234C23.0664 17.0234 24.732 18.5234 24.732 20.5234C24.732 22.3984 23.0664 24.0234 21.1445 24.0234Z" fill="#F9C275"/>
<path fill-rule="evenodd" clip-rule="evenodd" d="M25.5008 12.0234H16.7883C15.7633 12.1484 15.2508 12.2734 14.8664 12.3984C14.3539 12.5234 13.9695 12.7734 13.5852 13.1484C13.281 13.4452 13.1373 13.7419 12.9636 14.1006C12.9178 14.1951 12.8698 14.2942 12.8164 14.3984C12.7966 14.4564 12.7737 14.5175 12.7492 14.5828C12.6151 14.9401 12.432 15.4281 12.432 16.2734V24.7734C12.5602 25.7734 12.6883 26.2734 12.8164 26.6484C12.9445 27.1484 13.2008 27.5234 13.5852 27.8984C13.8893 28.1952 14.1935 28.3354 14.5611 28.5048C14.6581 28.5495 14.7594 28.5963 14.8664 28.6484C14.9259 28.6678 14.9884 28.6901 15.0554 28.714C15.4216 28.8448 15.9218 29.0234 16.7883 29.0234H25.5008C26.5258 28.8984 27.0383 28.7734 27.4227 28.6484C27.9352 28.5234 28.3195 28.2734 28.7039 27.8984C29.0081 27.6017 29.1518 27.305 29.3255 26.9463C29.3713 26.8517 29.4192 26.7528 29.4727 26.6484C29.4925 26.5904 29.5154 26.5294 29.5399 26.464C29.6739 26.1068 29.857 25.6187 29.857 24.7734V16.2734C29.7289 15.2734 29.6008 14.7734 29.4727 14.3984C29.3445 13.8984 29.0883 13.5234 28.7039 13.1484C28.3998 12.8517 28.0956 12.7115 27.728 12.542C27.6312 12.4974 27.5294 12.4505 27.4227 12.3984C27.3632 12.3791 27.3007 12.3568 27.2336 12.3328C26.8675 12.2021 26.3672 12.0234 25.5008 12.0234ZM21.1445 15.1484C18.0695 15.1484 15.6352 17.5234 15.6352 20.5234C15.6352 23.5234 18.0695 25.8984 21.1445 25.8984C24.2195 25.8984 26.6539 23.5234 26.6539 20.5234C26.6539 17.5234 24.2195 15.1484 21.1445 15.1484ZM28.0633 15.0234C28.0633 15.7138 27.4896 16.2734 26.782 16.2734C26.0744 16.2734 25.5008 15.7138 25.5008 15.0234C25.5008 14.3331 26.0744 13.7734 26.782 13.7734C27.4896 13.7734 28.0633 14.3331 28.0633 15.0234Z" fill="#F9C275"/>
<path fill-rule="evenodd" clip-rule="evenodd" d="M0.644531 20.5234C0.644531 9.47774 9.82269 0.523438 21.1445 0.523438C32.4664 0.523438 41.6445 9.47774 41.6445 20.5234C41.6445 31.5691 32.4664 40.5234 21.1445 40.5234C9.82269 40.5234 0.644531 31.5691 0.644531 20.5234ZM16.7883 10.1484H25.5008C26.6539 10.2734 27.4227 10.3984 28.0633 10.6484C28.832 11.0234 29.3445 11.2734 29.9852 11.8984C30.6258 12.5234 31.0102 13.1484 31.2664 13.7734C31.5227 14.3984 31.7789 15.1484 31.7789 16.2734V24.7734C31.6508 25.8984 31.5227 26.6484 31.2664 27.2734C30.882 28.0234 30.6258 28.5234 29.9852 29.1484C29.3445 29.7734 28.7039 30.1484 28.0633 30.3984C27.4227 30.6484 26.6539 30.8984 25.5008 30.8984H16.7883C15.6352 30.7734 14.8664 30.6484 14.2258 30.3984C13.457 30.0234 12.9445 29.7734 12.3039 29.1484C11.6633 28.5234 11.2789 27.8984 11.0227 27.2734C10.7664 26.6484 10.5102 25.8984 10.5102 24.7734V16.2734C10.6383 15.1484 10.7664 14.3984 11.0227 13.7734C11.407 13.0234 11.6633 12.5234 12.3039 11.8984C12.9445 11.2734 13.5852 10.8984 14.2258 10.6484C14.8664 10.3984 15.6352 10.1484 16.7883 10.1484Z" fill="#F9C275"/>
</svg>
