<svg width="42" height="41" viewBox="0 0 42 41" fill="none" xmlns="http://www.w3.org/2000/svg">
<path fill-rule="evenodd" clip-rule="evenodd" d="M0.144531 20.4873C0.144531 9.44161 9.32269 0.487305 20.6445 0.487305C31.9664 0.487305 41.1445 9.44161 41.1445 20.4873C41.1445 31.533 31.9664 40.4873 20.6445 40.4873C9.32269 40.4873 0.144531 31.533 0.144531 20.4873ZM10.6508 17.1123V30.4873H15.007V17.1123H10.6508ZM10.3945 12.8623C10.3945 14.2373 11.4195 15.2373 12.8289 15.2373C14.2383 15.2373 15.2633 14.2373 15.2633 12.8623C15.2633 11.4873 14.2383 10.4873 12.8289 10.4873C11.5477 10.4873 10.3945 11.4873 10.3945 12.8623ZM26.5383 30.4873H30.6383V22.2373C30.6383 18.1123 28.0758 16.7373 25.6414 16.7373C23.4633 16.7373 21.9258 18.1123 21.5414 18.9873V17.1123H17.4414V30.4873H21.7976V23.3623C21.7976 21.4873 23.0789 20.4873 24.3601 20.4873C25.6414 20.4873 26.5383 21.1123 26.5383 23.2373V30.4873Z" fill="#DBC6BC"/>
</svg>
