<svg width="41" height="41" viewBox="0 0 41 41" fill="none" xmlns="http://www.w3.org/2000/svg">
<path fill-rule="evenodd" clip-rule="evenodd" d="M0.644531 20.5234C0.644531 9.47774 9.59884 0.523438 20.6445 0.523438C31.6902 0.523438 40.6445 9.47774 40.6445 20.5234C40.6445 31.5691 31.6902 40.5234 20.6445 40.5234C9.59884 40.5234 0.644531 31.5691 0.644531 20.5234ZM28.2695 14.8984C29.1445 14.7734 29.8945 14.6484 30.6445 14.2734C30.1445 15.1484 29.3945 15.8984 28.5195 16.3984C28.7695 22.2734 24.5195 28.6484 16.8945 28.6484C14.6445 28.6484 12.5195 27.8984 10.6445 26.7734C12.7695 27.0234 15.0195 26.3984 16.5195 25.2734C14.6445 25.2734 13.1445 24.0234 12.6445 22.3984C13.2695 22.5234 13.8945 22.3984 14.5195 22.2734C12.6445 21.7734 11.2695 20.0234 11.2695 18.1484C11.8945 18.3984 12.5195 18.6484 13.1445 18.6484C11.3945 17.3984 10.7695 15.0234 11.8945 13.1484C14.0195 15.6484 17.0195 17.2734 20.3945 17.3984C19.7695 14.8984 21.7695 12.3984 24.3945 12.3984C25.5195 12.3984 26.6445 12.8984 27.3945 13.6484C28.3945 13.3984 29.2695 13.1484 30.0195 12.6484C29.7695 13.6484 29.1445 14.3984 28.2695 14.8984Z" fill="#F9C275"/>
</svg>
