<svg width="40" height="41" viewBox="0 0 40 41" fill="none" xmlns="http://www.w3.org/2000/svg">
<path d="M23.3133 20.5234L18.1945 17.5234V23.5234L23.3133 20.5234Z" fill="#F9C275"/>
<path fill-rule="evenodd" clip-rule="evenodd" d="M0.644531 20.5234C0.644531 9.47774 9.37498 0.523438 20.1445 0.523438C30.9141 0.523438 39.6445 9.47774 39.6445 20.5234C39.6445 31.5691 30.9141 40.5234 20.1445 40.5234C9.37498 40.5234 0.644531 31.5691 0.644531 20.5234ZM27.7008 13.8984C28.5539 14.1484 29.1633 14.7734 29.407 15.6484C29.8945 17.2734 29.8945 20.5234 29.8945 20.5234C29.8945 20.5234 29.8945 23.7734 29.5289 25.3984C29.2852 26.2734 28.6758 26.8984 27.8226 27.1484C26.2383 27.5234 20.1445 27.5234 20.1445 27.5234C20.1445 27.5234 13.9289 27.5234 12.4664 27.1484C11.6133 26.8984 11.0039 26.2734 10.7602 25.3984C10.3945 23.7734 10.3945 20.5234 10.3945 20.5234C10.3945 20.5234 10.3945 17.2734 10.6383 15.6484C10.882 14.7734 11.4914 14.1484 12.3445 13.8984C13.9289 13.5234 20.0226 13.5234 20.0226 13.5234C20.0226 13.5234 26.2383 13.5234 27.7008 13.8984Z" fill="#F9C275"/>
</svg>
